<svg width="32px" height="32px" viewBox="0 0 32 32" version="1.1" xmlns="http://www.w3.org/2000/svg" xmlns:xlink="http://www.w3.org/1999/xlink">
    <!-- Generator: Sketch 50 (54983) - http://www.bohemiancoding.com/sketch -->
    <desc>Created with Sketch.</desc>
    <defs></defs>
    <g id="Symbols" stroke="none" stroke-width="1" fill="none" fill-rule="evenodd">
        <g id="reviews" transform="translate(-512.000000, -439.000000)">
            <g id="left-" transform="translate(512.000000, 439.000000)">
                <circle id="Oval" fill="#6DCFF6" cx="16" cy="16" r="16"></circle>
                <path d="M10.9881098,16.1582673 C10.9348654,15.8499775 11.0278917,15.5212325 11.2734647,15.2756595 L11.3077162,15.2414079 C11.3508296,15.1982946 11.3968645,15.1598887 11.4451797,15.12619 L17.2673028,9.30406684 C17.6601692,8.91120043 18.2886008,8.90266972 18.6922838,9.30635266 L18.7265353,9.34060421 C19.1206642,9.73473304 19.1213913,10.373015 18.7288211,10.7655852 L13.4939907,16.0004156 L18.7288211,21.2352461 C19.1216876,21.6281125 19.1302183,22.2565441 18.7265353,22.660227 L18.6922838,22.6944786 C18.2981549,23.0886074 17.659873,23.0893346 17.2673028,22.6967644 L11.4477206,16.8771821 C11.398763,16.8428416 11.3518938,16.8036009 11.3077162,16.7594233 L11.2734647,16.7251718 C11.11373,16.5654371 11.018614,16.3655987 10.9881098,16.1582673 Z" id="back-arrow" fill="#FFFFFF"></path>
            </g>
        </g>
    </g>
</svg>