<?xml version="1.0" encoding="utf-8"?>
<!-- Generator: Adobe Illustrator 21.0.0, SVG Export Plug-In . SVG Version: 6.00 Build 0)  -->
<svg version="1.1" id="Layer_1" xmlns="http://www.w3.org/2000/svg" xmlns:xlink="http://www.w3.org/1999/xlink" x="0px" y="0px"
	 width="605.9px" height="605.9px" viewBox="0 0 605.9 605.9" style="enable-background:new 0 0 605.9 605.9;" xml:space="preserve"
	>
<style type="text/css">
	.st0{fill:#6DCFF6;}
	.st1{opacity:5.000000e-02;fill:#1F1C1C;enable-background:new    ;}
	.st2{fill:#FBAA1B;}
	.st3{fill:#ED1C24;}
	.st4{fill:#FCEE23;}
	.st5{stroke:#000000;stroke-width:9;stroke-linecap:round;stroke-linejoin:round;stroke-miterlimit:10;}
	.st6{fill:#FFFFFF;}
</style>
<path class="st0" d="M541.9,605.9H64c-35.2,0-64-28.8-64-64V64C0,28.8,28.8,0,64,0h477.9c35.2,0,64,28.8,64,64v477.9
	C605.9,577.1,577.1,605.9,541.9,605.9z"/>
<g id="MR">
	<path d="M257.3,284.4h-29.7L214,248.2c-0.1-0.6-0.4-1.4-0.7-2.4s-0.7-2.2-1.2-3.6l0.2,6.7v35.6H185V182.7h28.1
		c12.4,0,21.6,2.4,27.8,7.3c7.8,6.2,11.7,15.1,11.7,26.6c0,12.3-5.2,20.8-15.7,25.5L257.3,284.4z M212.5,229.8h1.8
		c3.2,0,5.8-1.2,7.9-3.6c2.1-2.4,3.2-5.5,3.2-9.2c0-7.6-4-11.4-11.9-11.4h-1V229.8z"/>
	<path d="M178.2,284.4h-28.7l-2-46.4l-0.9-18.5c-0.3,3.6-0.7,6.9-1.1,10.2c-0.4,3.2-0.9,6.4-1.4,9.4l-8.6,45.3h-22.4l-7.4-45.4
		c-0.4-2.6-1-7.2-1.8-13.6c-0.1-1-0.3-2.9-0.6-5.9l-0.6,18.8l-2.4,46.1H71l11.9-101.7h34.2l5.7,34.2c0.5,2.8,0.9,5.9,1.3,9.2
		s0.7,6.9,1,10.7c0.6-6.5,1.4-12.2,2.4-17.3l7-36.8h33.9L178.2,284.4z"/>
</g>
<g id="LEGS">
	<ellipse id="shadow_1_" class="st1" cx="315.8" cy="561.9" rx="191.1" ry="12.6"/>
	<path id="front" d="M373.5,425.1l70,11.6l17.5,2.9l7.4,1.2l-1.1,9l-9,70.4l-2.2,17.6l-1.1,8.8l-0.6,4.4l-0.3,2.2l-0.1,1.1l-0.1,0.5
		c-0.1,0.3,0.1-0.5-0.1,0.7c9,9.9,2.5,2.7,4.6,4.9h0.1h0.3l35-5.1l-29.5-3.1l1.2-2.9l3.2-8.3l6.5-16.5l25.9-66l6.5-16.5l1.6-4.2
		c1.3-4.3,1.6-9,0.9-13.5c-1.4-9.1-7.2-17.5-15.6-22.1l-36.2-15.8l-0.8-0.4c-24.2,18.1-54.2,31.1-89.4,37.8
		C369.9,424.4,371.7,424.8,373.5,425.1z"/>
	<path id="back" d="M203.9,418.6l-2.5,15.8l-2.6,16.4l-0.6,3.8l-9-1.4l-65.8-10.3l-32.9-5.2l-4.1-0.6l-0.5-0.1h-0.3h-0.1
		c-2.1,1.1,4.5-2.4-4.6,2.4c-0.1,0.2,0,0.1,0,0.1v0.1l-0.2,1l-0.3,2.1l-1.3,8.2l-2.4,16.4l6.8-15.2l3-6.8l1.7,0.8l30.4,13.5
		l60.8,27.1l15.2,6.8l1.9,0.8l0.9,0.4h0.1l0.2,0.1l0.3,0.1l0.6,0.2l1.3,0.4c3.4,0.9,7,1.3,10.6,1.1c7.2-0.4,14.3-3.2,20-8
		c2.8-2.4,5.4-5.2,7.3-8.5c1-1.6,1.9-3.3,2.6-5l0.5-1.3l0.2-0.6l0.1-0.2l0.4-0.9l3.4-7.6l6.8-15.2l9.1-20.4h-29.7
		C220.7,428.8,211.2,425,203.9,418.6z"/>
</g>
<g id="BURGER">
	<g id="bun">
		<path id="bun_x5F_path" class="st2" d="M480.8,188.4l18-0.2c9.5,0,17.2-7.7,17.2-17.2c0-2.8-0.7-5.4-1.8-7.7h0.2
			c-28.1-68.7-97.7-113-199.7-113h-83.4c-22.9,0-41.5,18.6-41.5,41.5v45.6h0.3v0.6c6.4-11.2,18.5-18.8,32.3-18.8
			c15.1,0,28.2,9,34,22c9.9-14,28.5-19.6,44.8-12.7c17.1,7.1,26.1,25.5,21.9,43c17.2-4.1,35.5,4.6,42.8,21.4
			c0.1,0.3,0.3,0.7,0.4,1.1c6.8,17.1,0.1,36.3-15.1,45.6c15.5,9.5,22,29.1,14.8,46.1c-7.1,17.1-25.5,26.1-43,21.9
			c4.1,17.3-4.6,35.5-21.4,42.8c-0.3,0.1-0.7,0.3-1.1,0.4c-16.3,6.5-34.4,0.7-44.2-13c-5.8,12.9-18.9,21.9-34,21.9
			c-13.8,0-25.8-7.5-32.3-18.6v0.5l-0.4-0.1v45.8c0,22.9,18.6,41.5,41.5,41.5h81.2c82.3,0,143.8-29.6,179.7-77h-0.1
			c1.8-2.4,2.9-5.4,2.9-8.7c0-2.3-0.5-4.5-1.5-6.4c-2.4-4.7-7.2-7.9-12.9-7.9L480.8,188.4z"/>
		<path id="bun_x5F_outline" d="M312.4,433.3h-81.2c-25.4,0-46-20.6-46-46v-45.6c0-1.2,0.5-2.3,1.3-3.2c0.6-0.8,1.4-1.3,2.4-1.6
			c2-0.5,4,0.3,5.1,2.1c5.9,10.1,16.7,16.4,28.4,16.4c12.8,0,24.6-7.6,29.9-19.3c0.7-1.5,2.1-2.5,3.7-2.6c1.6-0.2,3.2,0.6,4.1,1.9
			c8.8,12.3,24.8,17,38.8,11.4c0.3-0.1,0.7-0.3,0.9-0.4c14.6-6.3,22.5-22.2,18.9-37.6c-0.4-1.5,0.1-3.1,1.2-4.2s2.7-1.6,4.2-1.2
			c15.7,3.8,31.6-4.3,37.8-19.3c6.2-14.8,0.6-32.2-13-40.6c-1.3-0.8-2.1-2.3-2.1-3.8c0-1.6,0.8-3,2.1-3.8
			c13.6-8.4,19.2-25.2,13.2-40.1c-0.1-0.3-0.3-0.7-0.4-0.9c-6.3-14.6-22.2-22.6-37.6-18.9c-1.5,0.4-3.1-0.1-4.2-1.2
			c-1.1-1.1-1.6-2.7-1.2-4.2c3.8-15.7-4.3-31.6-19.3-37.8c-14-5.9-30.6-1.2-39.4,11.2c-0.9,1.3-2.5,2-4.1,1.9
			c-1.6-0.2-3-1.2-3.7-2.6c-5.3-11.7-17-19.3-29.9-19.3c-11.7,0-22.6,6.3-28.4,16.5c-1,1.8-3.1,2.6-5.1,2.1c-1.4-0.4-2.4-1.3-3-2.6
			c-0.4-0.7-0.7-1.5-0.7-2.4V92c0-25.4,20.7-46,46-46h83.4c99.5,0,173.8,42.2,203.9,115.8c0.1,0.3,0.2,0.7,0.3,1
			c1.1,2.7,1.7,5.5,1.7,8.4c0,11.9-9.7,21.7-21.7,21.7l-13.5,0.1L485,324.9c5.3,1.3,9.9,4.8,12.4,9.9c1.3,2.6,2,5.5,2,8.5
			c0,3.8-1.1,7.5-3.2,10.6c-0.1,0.3-0.3,0.6-0.5,0.9C457.3,405.3,392.2,433.3,312.4,433.3z M194.2,353.4v33.9c0,20.4,16.6,37,37,37
			h81.2c76.5,0,138.8-26.5,175.5-74.5c0.1-0.3,0.3-0.5,0.5-0.7c1.3-1.7,2-3.8,2-6c0-1.6-0.4-3.1-1-4.4c-1.7-3.4-5.1-5.5-8.9-5.5
			c-1.2,0-2.3-0.5-3.2-1.3c-0.8-0.8-1.3-2-1.3-3.2l0.2-140.3c0-2.5,2-4.5,4.5-4.5l18-0.2c7,0,12.7-5.7,12.7-12.7
			c0-2-0.4-3.9-1.3-5.7c-0.2-0.5-0.4-1-0.4-1.5C480.8,94.5,409.8,54.7,314.6,54.7h-83.4c-20.4,0-37,16.6-37,37v33.9
			c7.6-6.9,17.6-10.9,28.1-10.9c14.1,0,27.1,7.1,34.8,18.6c11.8-11.8,30-15.6,45.7-9c17,7.1,27,24,25.6,41.8
			c17.5-1.4,34.3,8.5,41.5,25c0.2,0.4,0.3,0.8,0.5,1.2c6.8,16.9,1.8,35.8-11.6,47.3c13.5,11.6,18.4,31.1,11.3,47.9
			c-7.1,17-24,27-41.8,25.6c1.4,17.5-8.4,34.3-25,41.5c-0.4,0.2-0.8,0.3-1.2,0.5c-15.8,6.3-33.4,2.5-45.1-9.3
			c-7.7,11.4-20.7,18.5-34.7,18.5C211.8,364.4,201.8,360.4,194.2,353.4z"/>
	</g>
	<g id="patty">
		<path id="patty_x5F_color" class="st3" d="M522.3,297.5v-59c0-17.1-14-31.2-31.2-31.2H368.9c0.2,12.9-6.4,25.3-17.7,32.3
			c15.5,9.5,22,29.1,14.8,46.1c-7,16.7-24.7,25.7-41.9,22.2l-1,0.6c1.5,6.8,0.9,13.8-1.3,20.1h169.3
			C508.2,328.7,522.3,314.7,522.3,297.5z"/>
		<path id="patty_x5F_outline" d="M491.1,333.2H321.8c-1.5,0-2.8-0.7-3.7-1.9s-1.1-2.7-0.6-4.1c2-5.7,2.4-11.8,1.2-17.7
			c-0.4-1.8,0.4-3.6,1.9-4.7l1-0.6c1-0.7,2.2-0.9,3.4-0.7c15.3,3.2,30.8-5,36.8-19.5c6.2-14.8,0.6-32.2-13-40.6
			c-1.3-0.8-2.1-2.3-2.1-3.8c0-1.6,0.8-3,2.1-3.8c9.8-6,15.8-16.9,15.6-28.4c0-1.2,0.5-2.4,1.3-3.2c0.8-0.9,2-1.3,3.2-1.3h122.2
			c19.7,0,35.7,16,35.7,35.7v59C526.8,317.2,510.8,333.2,491.1,333.2z M327.7,324.2h163.4c14.7,0,26.7-12,26.7-26.7v-59
			c0-14.7-12-26.7-26.7-26.7H373.2c-1,10.8-6.3,20.8-14.4,27.8c13.5,11.6,18.4,31.1,11.3,47.9c-7,16.8-24,27-41.8,25.6
			C328.6,316.8,328.4,320.5,327.7,324.2z"/>
	</g>
	<g id="cheese">
		<path id="cheese_x5F_color" class="st4" d="M383.3,223.1v60.8c0,15.3,12.4,27.8,27.8,27.8s27.8-12.4,27.8-27.8v-43.2
			c0-7.7,6.2-13.9,13.9-13.9c7.7,0,13.9,6.2,13.9,13.9v1.7c0,15.3,12.4,27.8,27.8,27.8c15.3,0,27.8-12.4,27.8-27.8v-23
			c0-17.1-14-31.2-31.2-31.2H363.3c0.9,1.5,1.8,3.1,2.5,4.8c0.1,0.3,0.3,0.7,0.4,1.1c2,5.1,2.8,10.3,2.6,15.4l0,0
			C376.6,209.5,382.9,215.5,383.3,223.1z"/>
		<path id="cheese_x5F_outline" d="M411.1,316.2c-17.8,0-32.3-14.5-32.3-32.3v-60.6c-0.4-5.2-4.7-9.3-10-9.3c-0.9,0-1.8-0.3-2.5-0.8
			c-1.3-0.9-2.1-2.4-2-4c0.2-4.6-0.6-9.2-2.3-13.5c-0.1-0.3-0.3-0.7-0.4-0.9c-0.6-1.4-1.4-2.9-2.2-4.2c-0.9-1.4-0.9-3.1-0.1-4.6
			s2.3-2.3,3.9-2.3H491c19.7,0,35.7,16,35.7,35.7v23c0,17.8-14.5,32.3-32.3,32.3c-17.8,0-32.3-14.5-32.3-32.3v-1.7
			c0-5.2-4.2-9.4-9.4-9.4c-5.2,0-9.4,4.2-9.4,9.4v43.2C443.4,301.7,428.9,316.2,411.1,316.2z M373.3,205.5c8,1.9,14,8.8,14.5,17.3
			c0,0.1,0,0.2,0,0.3v60.8c0,12.8,10.4,23.3,23.3,23.3c12.8,0,23.3-10.4,23.3-23.3v-43.2c0-10.1,8.3-18.4,18.4-18.4
			s18.4,8.3,18.4,18.4v1.7c0,12.8,10.4,23.3,23.3,23.3c12.8,0,23.3-10.4,23.3-23.3v-23c0-14.7-12-26.7-26.7-26.7H370.5
			C372.1,196.9,373.1,201.1,373.3,205.5z"/>
	</g>
	<g id="shadow">
		<path class="st5" d="M230.7,338c-4.1,9.1-11.8,16.2-21.2,19.6c4,1.5,8.3,2.3,12.8,2.3c9.4,0,17.9-3.5,24.4-9.1
			C240.4,348.1,234.8,343.7,230.7,338z"/>
		<path class="st5" d="M351.1,239.6c15.2-9.3,21.9-28.5,15.1-45.6c-0.1-0.3-0.3-0.7-0.4-1.1c-7.3-16.8-25.5-25.6-42.8-21.4
			c4.2-17.5-4.8-35.9-21.9-43c-9-3.8-18.6-3.7-27.2-0.6c0.5,0.2,1.1,0.4,1.6,0.6c17.1,7.1,26.1,25.5,21.9,43
			c17.2-4.1,35.5,4.6,42.8,21.4c0.1,0.3,0.3,0.7,0.4,1.1c6.8,17.1,0.1,36.3-15.1,45.6c15.5,9.5,22,29.1,14.8,46.1
			c-7.1,17.1-25.5,26.1-43,21.9c4.1,17.3-4.6,35.5-21.4,42.8c-0.3,0.1-0.7,0.3-1.1,0.4s-0.7,0.3-1.1,0.4c8.3,3,17.7,3.1,26.6-0.4
			c0.3-0.1,0.7-0.3,1.1-0.4c16.8-7.3,25.6-25.5,21.4-42.8c17.5,4.2,35.9-4.8,43-21.9C373.1,268.7,366.6,249.1,351.1,239.6z"/>
		<polyline class="st5" points="230.7,338 256.3,338 246.7,350.7 		"/>
		<path class="st5" d="M246.8,128.5c-5.8-5.2-15.1-9.2-24.5-9.2c-4.5,0-8.8,0.8-12.8,2.3c9.5,3.4,17.1,10.6,21.3,19.7h25.5
			C256.3,141.3,253,134,246.8,128.5z"/>
	</g>
	<g id="seed_3_">
		<circle class="st6" cx="453.6" cy="130.3" r="12.8"/>
		<path d="M453.6,147.5c-9.5,0-17.3-7.7-17.3-17.3c0-9.5,7.7-17.3,17.3-17.3s17.2,7.9,17.2,17.4S463.1,147.5,453.6,147.5z
			 M453.6,122c-4.6,0-8.3,3.7-8.3,8.3c0,4.6,3.7,8.3,8.3,8.3s8.3-3.7,8.3-8.3C461.8,125.7,458.1,122,453.6,122z"/>
	</g>
	<g id="seed_2_">
		<circle class="st6" cx="376.5" cy="133.3" r="12.8"/>
		<path d="M376.5,150.6c-9.5,0-17.3-7.7-17.3-17.3s7.7-17.3,17.3-17.3s17.3,7.7,17.3,17.3S386,150.6,376.5,150.6z M376.5,125.1
			c-4.6,0-8.3,3.7-8.3,8.3s3.7,8.3,8.3,8.3s8.3-3.7,8.3-8.3S381,125.1,376.5,125.1z"/>
	</g>
	<g id="seed_1_">
		<circle class="st6" cx="345" cy="83.1" r="12.8"/>
		<path d="M345,100.4c-9.5,0-17.3-7.7-17.3-17.3c0-9.5,7.7-17.3,17.3-17.3s17.3,7.7,17.3,17.3C362.3,92.6,354.5,100.4,345,100.4z
			 M345,74.9c-4.6,0-8.3,3.7-8.3,8.3c0,4.6,3.7,8.3,8.3,8.3s8.3-3.7,8.3-8.3C353.3,78.6,349.6,74.9,345,74.9z"/>
	</g>
	<g id="seed">
		<circle class="st6" cx="266.5" cy="93.3" r="12.8"/>
		<path d="M266.5,110.6c-9.5,0-17.3-7.7-17.3-17.3c0-9.5,7.7-17.3,17.3-17.3c9.5,0,17.3,7.7,17.3,17.3
			C283.8,102.8,276,110.6,266.5,110.6z M266.5,85.1c-4.6,0-8.3,3.7-8.3,8.3c0,4.6,3.7,8.3,8.3,8.3s8.3-3.7,8.3-8.3
			S271.1,85.1,266.5,85.1z"/>
	</g>
</g>
</svg>
